<svg id="Layer_1" data-name="Layer 1" xmlns="http://www.w3.org/2000/svg" viewBox="0 0 171.83 173.07"><defs><style>.cls-1{fill:#010101;}</style></defs><title>Poppy</title><g id="Petal5"><path class="cls-1" d="M48.89,30.15c4.58-9.1,10.69-16.05,20.31-19.89,5-2,10.18-4.26,15.47-5.16,3.24-.55,6.81-.55,9.83,1,1.93,1,3.39,2.58,5.18,3.74,3.56,2.3,6.64,1,10.53,1.92,4.82,1.17,8.59,5.54,11.81,9s6.39,7.19,9.54,10.82c2.92,3.37,5.75,7.64,9.89,9.53,1.22.56,3.32-.42,2.64-2-2-4.85-6.57-8.58-10.05-12.43-3.71-4.09-7.39-8.22-11.36-12.07-3.58-3.47-7.57-6.95-12.66-7.77-2.45-.39-5.05.4-7.36-.77s-3.79-3.12-6-4.22C86.69-3.09,74.09,3.08,65,7.31c-8.81,4.1-16.13,12.45-17.72,22.17-.15.91,1.12,1.64,1.61.68Z"/><path class="cls-1" d="M98.19,48.83c1.1-7.54,2.14-13.39,7.46-19.15a.94.94,0,0,0-1.14-1.47c-7.29,3.55-7.71,13.53-7.32,20.48,0,.53.91.73,1,.13Z"/></g><g id="Petal4"><path class="cls-1" d="M138.62,131.43c-1.77,9.18-8.76,15.67-15.39,21.81C116.3,159.65,108,165,98.84,167.54c-10.87,3.05-14.28-5-21.65-10.56a13.5,13.5,0,0,0-8.56-2.81,22.3,22.3,0,0,1-12.1-3.7c-2.31-1.42-4.49,1.72-2.79,3.62a16.37,16.37,0,0,0,10.5,5.1c2.48.3,5-.11,7.34.67,2.88.94,4.89,3.43,7,5.53,7.17,7.22,14.24,9.64,24.1,6a68,68,0,0,0,24.93-16.36c6-6.06,14.53-14.24,12.85-23.63a.94.94,0,0,0-1.81,0Z"/><path class="cls-1" d="M98,135.94a28.72,28.72,0,0,1-.64,12.44c-.74,2.73-2.73,5.46-1.07,8.08a.93.93,0,0,0,1,.42c3.57-1.36,3.77-6.81,4.09-10.17.38-4-.26-7.92-2.77-11.15-.27-.35-.71,0-.65.38Z"/></g><path id="Petal3" class="cls-1" d="M84.79,127c-5.11,8.72-11.72,15.78-21.07,19.92-8.86,3.93-23.5,6.64-29.48-3.06-2-3.21-3.41-6.65-6.67-8.82s-7.13-2.47-10.89-2.57c-3.55-.09-6-.39-8.39-3.24A15.14,15.14,0,0,1,5.11,122a16.86,16.86,0,0,1,4.23-14.36c2.11-2.34-1.28-5.79-3.48-3.48-7,7.28-8,19.24-1.7,27.31,3.94,5.08,8,5.18,14,5.38,4.42.15,8,1.4,10.43,5.27,1.52,2.41,2.56,5.07,4.52,7.19,7.39,8,21.92,5.72,30.81,1.88C74,146.85,83,138.28,86,127.54a.65.65,0,0,0-1.18-.5Z"/><g id="Petal2"><path class="cls-1" d="M114.72,41.26c14-8.29,28.52-2,38.11,9.7A121.58,121.58,0,0,1,164,67.91c2,3.56,4,7.53,4.09,11.73.05,3.75-1.59,7.28-2.92,10.71-2.69,7-5.45,13.92-8.09,20.91-1.11,2.94-2,7.48-4.12,9.91s-5.66,3.68-8.33,5c-5.86,3-16.08,9.81-22.23,5-3.76-2.91-5.45-6.48-10.76-5.07a1.22,1.22,0,0,0,.32,2.38c4.52.16,6.6,5.52,10.21,7.44a11.61,11.61,0,0,0,7.91.76c7.2-1.51,14.37-6,20.67-9.59,3.43-2,5.11-3.29,6.84-7,1.62-3.45,2.91-7.09,4.28-10.65,1.87-4.85,3.72-9.71,5.58-14.56,1.54-4,3.51-8.1,4.16-12.38,1.14-7.45-2.56-14.26-6.33-20.41-4.08-6.65-8.53-13.36-14.39-18.6-10.62-9.5-25.44-13.25-36.85-3.21-.47.41.14,1.17.66.86Z"/><path class="cls-1" d="M130.77,88.43c4.59-.35,9.13-1.23,13.74-1.45s9.17.65,13.81,1c1.37.1,1.62-1.74.65-2.4-8.12-5.55-20.32-1.86-28.48,1.81a.57.57,0,0,0,.29,1.06Z"/></g><g id="Petal1"><path class="cls-1" d="M79.4,32.53c-7.72-6.16-16.8-6.82-26.25-5.7-5.63.67-10.66.12-16.25-.17-4.5-.23-8.68,1.62-12.7,3.45-6.77,3.08-13,8.62-11.93,16.4C5.78,48.55.8,53.37.38,60.78,0,66.94,2.87,71.28,4.18,77c1.35,5.93-3,11.64-2.53,17.85.8,9.67,7.77,15.64,17.17,17,6.78.94,15.52,0,20.06-5.53a.24.24,0,0,0-.23-.39c-5.4,1.4-11,3.4-16.73,3-10.37-.8-17.87-8.28-15.86-19,.6-3.17,2.54-6,2.81-9.22.37-4.35-2.12-8.06-3.33-12.06C4.22,64.2,3.41,58.08,6.67,54.36a11.64,11.64,0,0,1,4.84-3.11c7.79-3,8.81-2.86,15-4.92.61-.2,1-.74.42-.83a33.2,33.2,0,0,0-9.41-.26C17.13,38,27.55,33.93,33.41,32.62c3.57-.8,7.09.19,10.69.18a84.26,84.26,0,0,0,10.29-1c7.14-.91,13.88-.79,20.25,3s12.52,10,12.4,18c0,.95,1.36.91,1.45,0C89.21,45.23,85.25,37.21,79.4,32.53Z"/><path class="cls-1" d="M35.42,46.39c-.53.1-.39.91.12.92,7.28.12,10,6.82,15.33,10.27a1.28,1.28,0,0,0,1.86-1.43A16,16,0,0,0,35.42,46.39Z"/></g></svg>