<svg id="Layer_1" data-name="Layer 1" xmlns="http://www.w3.org/2000/svg" viewBox="0 0 171.83 173.08"><defs><style>.cls-1{fill:#010101;}</style></defs><title>poppy</title><path class="cls-1" d="M262.67,107.08c14-8.29,28.52-2,38.11,9.7a121.58,121.58,0,0,1,11.17,16.95c2,3.56,4,7.53,4.09,11.73,0.05,3.75-1.59,7.28-2.92,10.71-2.69,7-5.45,13.92-8.09,20.91-1.11,2.94-2,7.48-4.12,9.91s-5.66,3.68-8.33,5c-5.86,3-16.08,9.81-22.23,5-3.76-2.91-5.45-6.48-10.76-5.07a1.22,1.22,0,0,0,.32,2.38c4.52,0.16,6.6,5.52,10.21,7.44a11.61,11.61,0,0,0,7.91.76c7.2-1.51,14.37-6,20.67-9.59,3.43-2,5.11-3.29,6.84-7,1.62-3.45,2.91-7.09,4.28-10.65,1.87-4.85,3.72-9.71,5.58-14.56,1.54-4,3.51-8.1,4.16-12.38,1.14-7.45-2.56-14.26-6.33-20.41-4.08-6.65-8.53-13.36-14.39-18.6-10.62-9.5-25.44-13.25-36.85-3.21a0.55,0.55,0,0,0,.66.86h0Z" transform="translate(-147.95 -65.82)"/><path class="cls-1" d="M186.6,171.71c-5.4,1.4-11,3.4-16.73,3-10.37-.8-17.87-8.28-15.86-19,0.6-3.17,2.54-6,2.81-9.22,0.37-4.35-2.12-8.06-3.33-12.06-1.32-4.37-2.13-10.49,1.12-14.21,2.81-3.21,7.16-3.63,10.86-5.16,1.75-.72,1.82-3.92-0.5-3.68-8.69.88-16.14,6.11-16.66,15.26-0.35,6.16,2.5,10.5,3.8,16.23,1.35,5.93-3,11.64-2.53,17.85,0.8,9.67,7.77,15.64,17.17,17,6.78,0.94,15.52,0,20.06-5.53a0.24,0.24,0,0,0-.23-0.39h0Z" transform="translate(-147.95 -65.82)"/><path class="cls-1" d="M236.44,118.59c0.73-7.54-3.24-15.56-9.09-20.24-7.71-6.16-16.8-6.82-26.25-5.71-5.63.66-10.66,0.11-16.25-.18-4.5-.23-8.69,1.62-12.71,3.45-7.25,3.3-13.82,9.4-11.62,18.05,0.85,3.34,6,1.93,5.16-1.42-2-8.15,9.45-12.69,15.68-14.09,3.57-.8,7.09.19,10.69,0.18a83.29,83.29,0,0,0,10.3-1.05c7.15-.92,13.88-0.81,20.25,3s12.52,10,12.4,18a0.72,0.72,0,0,0,1.45,0h0Z" transform="translate(-147.95 -65.82)"/><path class="cls-1" d="M196.85,96c4.58-9.1,10.69-16.05,20.31-19.89,5-2,10.18-4.26,15.47-5.16,3.24-.55,6.81-0.55,9.83,1,1.93,1,3.39,2.58,5.18,3.74,3.56,2.3,6.64,1,10.53,1.92,4.82,1.17,8.59,5.54,11.81,9s6.39,7.19,9.53,10.83c2.92,3.37,5.75,7.64,9.9,9.52,1.23,0.55,3.31-.41,2.64-2-2-4.87-6.56-8.59-10-12.44-3.71-4.09-7.4-8.22-11.37-12.07-3.58-3.47-7.57-6.95-12.66-7.77-2.45-.39-5.05.4-7.36-0.77s-3.79-3.12-6-4.22C234.65,62.73,222,68.9,213,73.13c-8.81,4.1-16.13,12.45-17.72,22.17-0.15.91,1.12,1.64,1.61,0.68h0Z" transform="translate(-147.95 -65.82)"/><path class="cls-1" d="M165.54,113.09a1.81,1.81,0,0,0-1.47.52,0.18,0.18,0,0,0,.25.25,1.45,1.45,0,0,1,1.22-.37c0.25,0,.25-0.37,0-0.39h0Z" transform="translate(-147.95 -65.82)"/><path class="cls-1" d="M171.26,112.2c-0.49-1.5-3.18-1.89-4.44-2-2.39-.18-5.41.25-6.74,2.46a2,2,0,0,0,1.19,2.93c2.14,0.75,5.06-.45,7.14-1.09,0.8-.25,3.3-0.95,2.85-2.31h0Z" transform="translate(-147.95 -65.82)"/><path class="cls-1" d="M155.92,172.07a0.92,0.92,0,0,0,.67-0.42,0.3,0.3,0,0,0-.4-0.4,0.94,0.94,0,0,0-.44.66,0.14,0.14,0,0,0,.17.17h0Z" transform="translate(-147.95 -65.82)"/><path class="cls-1" d="M246.14,114.65c1.1-7.54,2.14-13.39,7.46-19.15A0.94,0.94,0,0,0,252.46,94c-7.29,3.55-7.71,13.53-7.32,20.48,0,0.53.91,0.73,1,.13h0Z" transform="translate(-147.95 -65.82)"/><path class="cls-1" d="M183.49,113.13c7.28,0.12,10,6.82,15.33,10.27a1.28,1.28,0,0,0,1.86-1.43,16,16,0,0,0-17.32-9.75c-0.53.1-.39,0.91,0.12,0.92h0Z" transform="translate(-147.95 -65.82)"/><path class="cls-1" d="M278.73,154.25c4.59-.35,9.13-1.23,13.74-1.45s9.17,0.65,13.81,1c1.37,0.1,1.62-1.74.65-2.4-8.12-5.55-20.32-1.86-28.48,1.81a0.57,0.57,0,0,0,.29,1.06h0Z" transform="translate(-147.95 -65.82)"/><path class="cls-1" d="M232.74,192.86c-5.11,8.72-11.72,15.78-21.07,19.92-8.86,3.93-23.5,6.64-29.48-3.06-2-3.21-3.41-6.65-6.67-8.82s-7.13-2.47-10.89-2.57c-3.55-.09-6-0.39-8.39-3.24a15.14,15.14,0,0,1-3.18-7.27,16.86,16.86,0,0,1,4.23-14.36c2.11-2.34-1.28-5.79-3.48-3.48-7,7.28-8,19.24-1.7,27.31,3.94,5.08,8,5.18,14,5.38,4.42,0.15,8,1.4,10.43,5.27,1.52,2.41,2.56,5.07,4.52,7.19,7.39,8,21.92,5.72,30.81,1.88,10.08-4.35,19.07-12.93,22-23.67a0.65,0.65,0,0,0-1.18-.5h0Z" transform="translate(-147.95 -65.82)"/><path class="cls-1" d="M286.57,197.25c-1.77,9.18-8.76,15.67-15.39,21.81-6.93,6.41-15.23,11.73-24.39,14.3-10.87,3-14.27-5-21.64-10.57a13.52,13.52,0,0,0-8.57-2.82,22.67,22.67,0,0,1-12.1-3.68c-2.33-1.4-4.47,1.71-2.79,3.62a16.2,16.2,0,0,0,10.5,5.12c2.48,0.3,5-.12,7.33.66,2.88,0.94,4.88,3.43,7,5.53,7.17,7.22,14.25,9.63,24.11,6a68.08,68.08,0,0,0,24.93-16.36c6-6.06,14.53-14.24,12.85-23.63a0.94,0.94,0,0,0-1.81,0h0Z" transform="translate(-147.95 -65.82)"/><path class="cls-1" d="M246,201.76a28.72,28.72,0,0,1-.64,12.44c-0.74,2.73-2.73,5.46-1.07,8.08a0.93,0.93,0,0,0,1,.42c3.57-1.36,3.77-6.81,4.09-10.17,0.38-4-.26-7.92-2.77-11.15-0.27-.35-0.71,0-0.65.38h0Z" transform="translate(-147.95 -65.82)"/></svg>